<?xml version="1.0" encoding="UTF-8"?>
<svg width="100" height="100" viewBox="0 0 100 100" xmlns="http://www.w3.org/2000/svg">
  <!-- 定义渐变 -->
  <defs>
    <!-- 苹果主体渐变 -->
    <radialGradient id="appleGradient" cx="0.3" cy="0.3">
      <stop offset="0%" stop-color="#ff8a80"/>
      <stop offset="40%" stop-color="#f44336"/>
      <stop offset="100%" stop-color="#d32f2f"/>
    </radialGradient>
    
    <!-- 高光渐变 -->
    <radialGradient id="highlightGradient" cx="0.5" cy="0.3">
      <stop offset="0%" stop-color="rgba(255,255,255,0.8)"/>
      <stop offset="100%" stop-color="rgba(255,255,255,0)"/>
    </radialGradient>
    
    <!-- 叶子渐变 -->
    <linearGradient id="leafGradient" x1="0%" y1="0%" x2="100%" y2="100%">
      <stop offset="0%" stop-color="#66bb6a"/>
      <stop offset="100%" stop-color="#2e7d32"/>
    </linearGradient>
  </defs>
  
  <!-- 苹果主体 -->
  <path d="M50 20 C65 20, 75 30, 75 45 C75 70, 65 85, 50 85 C35 85, 25 70, 25 45 C25 30, 35 20, 50 20 Z" 
        fill="url(#appleGradient)" stroke="none"/>
  
  <!-- 苹果顶部凹陷 -->
  <ellipse cx="45" cy="22" rx="8" ry="4" fill="#c62828"/>
  <ellipse cx="55" cy="22" rx="8" ry="4" fill="#c62828"/>
  
  <!-- 苹果茎 -->
  <rect x="48" y="12" width="4" height="12" fill="#5d4037" rx="2"/>
  
  <!-- 叶子 -->
  <ellipse cx="58" cy="18" rx="8" ry="4" fill="url(#leafGradient)" 
           transform="rotate(30 58 18)"/>
  
  <!-- 高光 -->
  <ellipse cx="42" cy="35" rx="12" ry="8" fill="url(#highlightGradient)" 
           transform="rotate(-20 42 35)"/>
  
  <!-- 小高光点 -->
  <circle cx="38" cy="32" r="3" fill="rgba(255,255,255,0.6)"/>
</svg> 